<svg width="20" height="20" viewBox="0 0 20 20" fill="none" xmlns="http://www.w3.org/2000/svg">
<path fill-rule="evenodd" clip-rule="evenodd" d="M6.17053 12.4494C6.28055 12.7766 6.10451 13.131 5.77734 13.241C4.71792 13.5973 4.15489 14.4866 3.85373 15.391C3.73414 15.7501 3.66189 16.0958 3.61848 16.3817C3.90434 16.3383 4.25006 16.266 4.60917 16.1464C5.51355 15.8453 6.4029 15.2823 6.75916 14.2228C6.86918 13.8957 7.2236 13.7196 7.55078 13.8296C7.87795 13.9397 8.05399 14.2941 7.94396 14.6213C7.4096 16.2103 6.08801 16.9715 5.00411 17.3324C4.45655 17.5148 3.94395 17.6048 3.5698 17.6497C3.38182 17.6722 3.22641 17.6836 3.116 17.6894C3.06074 17.6924 3.01658 17.6939 2.98505 17.6946C2.96928 17.695 2.95666 17.6952 2.94737 17.6954L2.93596 17.6955L2.93217 17.6955L2.93077 17.6955L2.93019 17.6955C2.92993 17.6955 2.92969 17.6955 2.92969 17.0705C2.30469 17.0705 2.30469 17.0702 2.30469 17.07L2.30469 17.0694L2.30469 17.068L2.30471 17.0642L2.30481 17.0528C2.30493 17.0435 2.30514 17.0309 2.30553 17.0151C2.30631 16.9836 2.30782 16.9394 2.31072 16.8842C2.31653 16.7738 2.32797 16.6184 2.35052 16.4304C2.3954 16.0562 2.48542 15.5436 2.66776 14.9961C3.0287 13.9122 3.78989 12.5906 5.37891 12.0562C5.70608 11.9462 6.0605 12.1222 6.17053 12.4494ZM2.92969 17.0705H2.30469C2.30469 17.4157 2.58451 17.6955 2.92969 17.6955V17.0705Z" fill="#A259FF"/>
<path fill-rule="evenodd" clip-rule="evenodd" d="M16.5462 3.45406C15.8208 3.34943 14.0351 3.31002 12.2076 5.13753L7.34482 10.0003L10 12.6555L14.8627 7.79271C16.6903 5.9652 16.6508 4.17951 16.5462 3.45406ZM16.7275 2.21727C15.7298 2.07282 13.5058 2.07157 11.3237 4.25365L6.019 9.55834C5.90179 9.67555 5.83594 9.83452 5.83594 10.0003C5.83594 10.166 5.90179 10.325 6.019 10.4422L9.55806 13.9813C9.80214 14.2254 10.1979 14.2254 10.4419 13.9813L15.7466 8.67659C17.9287 6.49452 17.9275 4.27052 17.783 3.27282C17.7465 3.0058 17.6235 2.75803 17.4329 2.5674C17.2422 2.37678 16.9945 2.25382 16.7275 2.21727Z" fill="#A259FF"/>
<path fill-rule="evenodd" clip-rule="evenodd" d="M14.422 8.49219C14.7672 8.49219 15.047 8.77201 15.047 9.11719V14.1641L15.0469 14.173C15.0423 14.5013 14.9086 14.8145 14.675 15.045L12.1527 17.575C11.9926 17.7349 11.7921 17.8484 11.5725 17.9033C11.353 17.9582 11.1227 17.9524 10.9061 17.8867C10.6896 17.8209 10.495 17.6976 10.343 17.5299C10.1912 17.3623 10.0877 17.1567 10.0435 16.9349C10.0434 16.9347 10.0435 16.9351 10.0435 16.9349L9.38731 13.6619C9.31946 13.3235 9.53882 12.9941 9.87727 12.9263C10.2157 12.8584 10.5451 13.0778 10.6129 13.4162L11.2694 16.6906L13.797 14.1552V9.11719C13.797 8.77201 14.0768 8.49219 14.422 8.49219Z" fill="#A259FF"/>
<path fill-rule="evenodd" clip-rule="evenodd" d="M6.26765 5.00006L6.27655 5H11.3234C11.6686 5 11.9484 5.27982 11.9484 5.625C11.9484 5.97018 11.6686 6.25 11.3234 6.25H6.28539L6.28034 6.25515L6.28031 6.25512L3.75 8.77762L3.75097 8.77782L7.02441 9.43407C7.36285 9.50192 7.58221 9.83128 7.51436 10.1697C7.44651 10.5082 7.11714 10.7275 6.7787 10.6597L3.50623 10.0036C3.50605 10.0036 3.50586 10.0036 3.50567 10.0035C3.28392 9.95932 3.07831 9.8558 2.91074 9.70398C2.74303 9.55204 2.61971 9.35741 2.55394 9.14087C2.48818 8.92433 2.48243 8.694 2.53732 8.47445C2.59221 8.2549 2.70568 8.05437 2.86561 7.89425L2.86654 7.89331L2.86655 7.89331L5.39565 5.37201C5.62616 5.13838 5.93937 5.00474 6.26765 5.00006Z" fill="#A259FF"/>
</svg>
